{
  "accessors": [
    {
      "bufferView": 2,
      "componentType": 5126,
      "count": 1346,
      "max": [0.6063202619552612, 1.0640252828598022, -0.6843528747558594],
      "min": [-0.6029752492904663, -0.1977829933166504, -1.359360694885254],
      "type": "VEC3"
    },
    {
      "bufferView": 2,
      "byteOffset": 16152,
      "componentType": 5126,
      "count": 1346,
      "max": [0.9415619373321533, 0.9922455549240112, 0.9998095035552979],
      "min": [-0.8686821460723877, -0.9851706624031067, -0.27297982573509216],
      "type": "VEC3"
    },
    {
      "bufferView": 3,
      "componentType": 5126,
      "count": 1346,
      "max": [1.0, 1.0, 1.0, 1.0],
      "min": [1.0, 1.0, 1.0, 1.0],
      "type": "VEC4"
    },
    {
      "bufferView": 1,
      "componentType": 5126,
      "count": 1346,
      "max": [0.0, 0.0],
      "min": [0.0, 0.0],
      "type": "VEC2"
    },
    {
      "bufferView": 0,
      "componentType": 5125,
      "count": 7473,
      "type": "SCALAR"
    },
    {
      "bufferView": 2,
      "byteOffset": 32304,
      "componentType": 5126,
      "count": 65532,
      "max": [1.7096489667892456, 1.0714380741119385, 0.6784589886665344],
      "min": [-1.7094160318374634, -1.1065340042114258, -3.6674654483795166],
      "type": "VEC3"
    },
    {
      "bufferView": 2,
      "byteOffset": 818688,
      "componentType": 5126,
      "count": 65532,
      "max": [0.9999845027923584, 0.9996576905250549, 0.9996782541275024],
      "min": [-0.9999915957450867, -0.9999728202819824, -0.9999560713768005],
      "type": "VEC3"
    },
    {
      "bufferView": 3,
      "byteOffset": 21536,
      "componentType": 5126,
      "count": 65532,
      "max": [1.0, 1.0, 1.0, 1.0],
      "min": [
        0.16078431904315948, 0.16078431904315948, 0.16078431904315948, 1.0
      ],
      "type": "VEC4"
    },
    {
      "bufferView": 1,
      "byteOffset": 10768,
      "componentType": 5126,
      "count": 65532,
      "max": [0.0, 0.0],
      "min": [0.0, 0.0],
      "type": "VEC2"
    },
    {
      "bufferView": 0,
      "byteOffset": 29892,
      "componentType": 5125,
      "count": 377169,
      "type": "SCALAR"
    },
    {
      "bufferView": 2,
      "byteOffset": 1605072,
      "componentType": 5126,
      "count": 65532,
      "max": [0.8640758395195007, 1.21429443359375, 1.030190110206604],
      "min": [-0.9192465543746948, -1.1065340042114258, -1.4358625411987305],
      "type": "VEC3"
    },
    {
      "bufferView": 2,
      "byteOffset": 2391456,
      "componentType": 5126,
      "count": 65532,
      "max": [0.9809508323669434, 0.8683116436004639, 0.9692525267601013],
      "min": [-0.9995568990707397, -0.9999654293060303, -0.9775327444076538],
      "type": "VEC3"
    },
    {
      "bufferView": 3,
      "byteOffset": 1070048,
      "componentType": 5126,
      "count": 65532,
      "max": [1.0, 1.0, 1.0, 1.0],
      "min": [
        0.16470588743686676, 0.16470588743686676, 0.16470588743686676, 1.0
      ],
      "type": "VEC4"
    },
    {
      "bufferView": 1,
      "byteOffset": 535024,
      "componentType": 5126,
      "count": 65532,
      "max": [0.0, 0.0],
      "min": [0.0, 0.0],
      "type": "VEC2"
    },
    {
      "bufferView": 0,
      "byteOffset": 1538568,
      "componentType": 5125,
      "count": 353835,
      "type": "SCALAR"
    },
    {
      "bufferView": 2,
      "byteOffset": 3177840,
      "componentType": 5126,
      "count": 65532,
      "max": [0.8908678293228149, 0.9806632995605469, 1.070281744003296],
      "min": [-0.9001535177230835, -1.106256365776062, -1.4677245616912842],
      "type": "VEC3"
    },
    {
      "bufferView": 2,
      "byteOffset": 3964224,
      "componentType": 5126,
      "count": 65532,
      "max": [0.9996716380119324, 0.999870240688324, 0.9999998211860657],
      "min": [-0.987360954284668, -0.9998955130577087, -0.9998699426651001],
      "type": "VEC3"
    },
    {
      "bufferView": 3,
      "byteOffset": 2118560,
      "componentType": 5126,
      "count": 65532,
      "max": [1.0, 1.0, 1.0, 1.0],
      "min": [
        0.16470588743686676, 0.16470588743686676, 0.16470588743686676, 1.0
      ],
      "type": "VEC4"
    },
    {
      "bufferView": 1,
      "byteOffset": 1059280,
      "componentType": 5126,
      "count": 65532,
      "max": [0.9980400204658508, 0.6086599826812744],
      "min": [0.0, 0.0],
      "type": "VEC2"
    },
    {
      "bufferView": 0,
      "byteOffset": 2953908,
      "componentType": 5125,
      "count": 338610,
      "type": "SCALAR"
    },
    {
      "bufferView": 2,
      "byteOffset": 4750608,
      "componentType": 5126,
      "count": 65532,
      "max": [0.7723811864852905, 1.3664956092834473, 0.9834327697753906],
      "min": [-0.9201401472091675, -0.7190017104148865, -0.9356868863105774],
      "type": "VEC3"
    },
    {
      "bufferView": 2,
      "byteOffset": 5536992,
      "componentType": 5126,
      "count": 65532,
      "max": [0.999951183795929, 0.9999954700469971, 0.9999998211860657],
      "min": [-0.9999940991401672, -0.9999603033065796, -0.9999997615814209],
      "type": "VEC3"
    },
    {
      "bufferView": 3,
      "byteOffset": 3167072,
      "componentType": 5126,
      "count": 65532,
      "max": [1.0, 1.0, 1.0, 1.0],
      "min": [
        0.10196078568696976, 0.10196078568696976, 0.10196078568696976, 1.0
      ],
      "type": "VEC4"
    },
    {
      "bufferView": 1,
      "byteOffset": 1583536,
      "componentType": 5126,
      "count": 65532,
      "max": [0.9980400204658508, 0.6814500093460083],
      "min": [0.0, 0.0],
      "type": "VEC2"
    },
    {
      "bufferView": 0,
      "byteOffset": 4308348,
      "componentType": 5125,
      "count": 370152,
      "type": "SCALAR"
    },
    {
      "bufferView": 2,
      "byteOffset": 6323376,
      "componentType": 5126,
      "count": 65532,
      "max": [1.2269432544708252, 1.33556067943573, 1.06777024269104],
      "min": [-1.5669643878936768, -1.102192759513855, -3.6301047801971436],
      "type": "VEC3"
    },
    {
      "bufferView": 2,
      "byteOffset": 7109760,
      "componentType": 5126,
      "count": 65532,
      "max": [0.9999932050704956, 0.9999575018882751, 0.997739315032959],
      "min": [-0.999951183795929, -0.9999959468841553, -0.9999997615814209],
      "type": "VEC3"
    },
    {
      "bufferView": 3,
      "byteOffset": 4215584,
      "componentType": 5126,
      "count": 65532,
      "max": [1.0, 1.0, 1.0, 1.0],
      "min": [
        0.10196078568696976, 0.10196078568696976, 0.10196078568696976, 1.0
      ],
      "type": "VEC4"
    },
    {
      "bufferView": 1,
      "byteOffset": 2107792,
      "componentType": 5126,
      "count": 65532,
      "max": [0.9923999905586243, 0.6814500093460083],
      "min": [0.0, 0.0],
      "type": "VEC2"
    },
    {
      "bufferView": 0,
      "byteOffset": 5788956,
      "componentType": 5125,
      "count": 329361,
      "type": "SCALAR"
    },
    {
      "bufferView": 2,
      "byteOffset": 7896144,
      "componentType": 5126,
      "count": 13864,
      "max": [1.637060284614563, 1.3597993850708008, 1.0194517374038696],
      "min": [-1.4512118101119995, -0.14521123468875885, -3.6659538745880127],
      "type": "VEC3"
    },
    {
      "bufferView": 2,
      "byteOffset": 8062512,
      "componentType": 5126,
      "count": 13864,
      "max": [0.9948679208755493, 0.992963969707489, 0.9564223885536194],
      "min": [-0.9942283034324646, -0.9979287981987, -0.9937400221824646],
      "type": "VEC3"
    },
    {
      "bufferView": 3,
      "byteOffset": 5264096,
      "componentType": 5126,
      "count": 13864,
      "max": [1.0, 1.0, 1.0, 1.0],
      "min": [1.0, 1.0, 1.0, 1.0],
      "type": "VEC4"
    },
    {
      "bufferView": 1,
      "byteOffset": 2632048,
      "componentType": 5126,
      "count": 13864,
      "max": [0.0, 0.0],
      "min": [0.0, 0.0],
      "type": "VEC2"
    },
    {
      "bufferView": 0,
      "byteOffset": 7106400,
      "componentType": 5125,
      "count": 41688,
      "type": "SCALAR"
    }
  ],
  "asset": {
    "extras": {
      "author": "Rodesqa (https://sketchfab.com/rodesqa)",
      "license": "CC-BY-4.0 (http://creativecommons.org/licenses/by/4.0/)",
      "source": "https://sketchfab.com/3d-models/free-cute-girl-face-b0e78951b64848389dc939f10ec5d531",
      "title": "free Cute girl face"
    },
    "generator": "Sketchfab-16.7.0",
    "version": "2.0"
  },
  "bufferViews": [
    {
      "buffer": 0,
      "byteLength": 7273152,
      "name": "floatBufferViews",
      "target": 34963
    },
    {
      "buffer": 0,
      "byteLength": 2742960,
      "byteOffset": 7273152,
      "byteStride": 8,
      "name": "floatBufferViews",
      "target": 34962
    },
    {
      "buffer": 0,
      "byteLength": 8228880,
      "byteOffset": 10016112,
      "byteStride": 12,
      "name": "floatBufferViews",
      "target": 34962
    },
    {
      "buffer": 0,
      "byteLength": 5485920,
      "byteOffset": 18244992,
      "byteStride": 16,
      "name": "floatBufferViews",
      "target": 34962
    }
  ],
  "buffers": [
    {
      "byteLength": 23730912,
      "uri": "headModel.bin"
    }
  ],
  "extensionsRequired": ["KHR_materials_pbrSpecularGlossiness"],
  "extensionsUsed": ["KHR_materials_pbrSpecularGlossiness"],
  "materials": [
    {
      "doubleSided": true,
      "extensions": {
        "KHR_materials_pbrSpecularGlossiness": {
          "diffuseFactor": [
            0.21790542599748874, 0.21790542599748874, 0.21790542599748874, 1.0
          ],
          "glossinessFactor": 0.37980763369945514,
          "specularFactor": [
            0.10819080591483707, 0.10819080591483707, 0.10819080591483707
          ]
        }
      },
      "name": "defaultMat"
    }
  ],
  "meshes": [
    {
      "name": "Object_0",
      "primitives": [
        {
          "attributes": {
            "COLOR_0": 2,
            "NORMAL": 1,
            "POSITION": 0,
            "TEXCOORD_0": 3
          },
          "indices": 4,
          "material": 0,
          "mode": 4
        }
      ]
    },
    {
      "name": "Object_1",
      "primitives": [
        {
          "attributes": {
            "COLOR_0": 7,
            "NORMAL": 6,
            "POSITION": 5,
            "TEXCOORD_0": 8
          },
          "indices": 9,
          "material": 0,
          "mode": 4
        }
      ]
    },
    {
      "name": "Object_2",
      "primitives": [
        {
          "attributes": {
            "COLOR_0": 12,
            "NORMAL": 11,
            "POSITION": 10,
            "TEXCOORD_0": 13
          },
          "indices": 14,
          "material": 0,
          "mode": 4
        }
      ]
    },
    {
      "name": "Object_3",
      "primitives": [
        {
          "attributes": {
            "COLOR_0": 17,
            "NORMAL": 16,
            "POSITION": 15,
            "TEXCOORD_0": 18
          },
          "indices": 19,
          "material": 0,
          "mode": 4
        }
      ]
    },
    {
      "name": "Object_4",
      "primitives": [
        {
          "attributes": {
            "COLOR_0": 22,
            "NORMAL": 21,
            "POSITION": 20,
            "TEXCOORD_0": 23
          },
          "indices": 24,
          "material": 0,
          "mode": 4
        }
      ]
    },
    {
      "name": "Object_5",
      "primitives": [
        {
          "attributes": {
            "COLOR_0": 27,
            "NORMAL": 26,
            "POSITION": 25,
            "TEXCOORD_0": 28
          },
          "indices": 29,
          "material": 0,
          "mode": 4
        }
      ]
    },
    {
      "name": "Object_6",
      "primitives": [
        {
          "attributes": {
            "COLOR_0": 32,
            "NORMAL": 31,
            "POSITION": 30,
            "TEXCOORD_0": 33
          },
          "indices": 34,
          "material": 0,
          "mode": 4
        }
      ]
    }
  ],
  "nodes": [
    {
      "children": [1],
      "matrix": [
        1.0, 0.0, 0.0, 0.0, 0.0, 2.220446049250313e-16, -1.0, 0.0, 0.0, 1.0,
        2.220446049250313e-16, 0.0, 0.0, 0.0, 0.0, 1.0
      ],
      "name": "Sketchfab_model"
    },
    {
      "children": [2, 3, 4, 5, 6, 7, 8],
      "name": "cute girl face.obj.cleaner.materialmerger.gles"
    },
    {
      "mesh": 0,
      "name": "Object_2"
    },
    {
      "mesh": 1,
      "name": "Object_3"
    },
    {
      "mesh": 2,
      "name": "Object_4"
    },
    {
      "mesh": 3,
      "name": "Object_5"
    },
    {
      "mesh": 4,
      "name": "Object_6"
    },
    {
      "mesh": 5,
      "name": "Object_7"
    },
    {
      "mesh": 6,
      "name": "Object_8"
    }
  ],
  "scene": 0,
  "scenes": [
    {
      "name": "Sketchfab_Scene",
      "nodes": [0]
    }
  ]
}
